<?xml version="1.0" encoding="UTF-8" standalone="no" ?>
<!DOCTYPE svg PUBLIC "-//W3C//DTD SVG 1.1//EN" "http://www.w3.org/Graphics/SVG/1.1/DTD/svg11.dtd">
<svg xmlns="http://www.w3.org/2000/svg" xmlns:xlink="http://www.w3.org/1999/xlink" version="1.1" width="500" height="500" viewBox="0 0 500 500" xml:space="preserve">
<desc>Created with Fabric.js 4.6.0</desc>
<defs>
</defs>
<g transform="matrix(2.4 0 0 2.4 245.02 248.72)" id="hqsN-ztknrutoBxLhc18p"  >
<path style="stroke: rgb(0,0,0); stroke-width: 2.5; stroke-dasharray: none; stroke-linecap: butt; stroke-dashoffset: 0; stroke-linejoin: miter; stroke-miterlimit: 4; fill: rgb(255,255,255); fill-opacity: 0; fill-rule: nonzero; opacity: 1;" vector-effect="non-scaling-stroke"  transform=" translate(0, 0)" d="M 43.49736 -103.3 L -43.497370000000004 103.3" stroke-linecap="round" />
</g>
<g transform="matrix(2.33 0 0 1.85 64.38 166.69)" id="DnALV73kVHUVLNRLZ5RBB"  >
<path style="stroke: rgb(0,0,0); stroke-width: 2.5; stroke-dasharray: none; stroke-linecap: butt; stroke-dashoffset: 0; stroke-linejoin: miter; stroke-miterlimit: 4; fill: rgb(255,255,255); fill-opacity: 0; fill-rule: nonzero; opacity: 1;" vector-effect="non-scaling-stroke"  transform=" translate(0, 0)" d="M 27.00622 -43.86722 L 8.86767 -43.86722 C 1.3179300000000005 -43.86722 -4.802349999999999 -37.74694 -4.802349999999999 -30.197200000000002 L -4.802349999999999 32.466229999999996 L -4.802349999999999 32.466229999999996 C -4.802349999999999 38.76282 -9.906749999999999 43.867219999999996 -16.203339999999997 43.867219999999996 L -27.006229999999995 43.867219999999996" stroke-linecap="round" />
</g>
<g transform="matrix(2.34 0 0 -1.86 64.52 330.56)" id="xi7xHMpPTwE6RyH9HcaFK"  >
<path style="stroke: rgb(0,0,0); stroke-width: 2.5; stroke-dasharray: none; stroke-linecap: butt; stroke-dashoffset: 0; stroke-linejoin: miter; stroke-miterlimit: 4; fill: rgb(255,255,255); fill-opacity: 0; fill-rule: nonzero; opacity: 1;" vector-effect="non-scaling-stroke"  transform=" translate(0, 0)" d="M 27.00622 -43.86722 L 8.86767 -43.86722 C 1.3179300000000005 -43.86722 -4.802349999999999 -37.74694 -4.802349999999999 -30.197200000000002 L -4.802349999999999 32.466229999999996 L -4.802349999999999 32.466229999999996 C -4.802349999999999 38.76282 -9.906749999999999 43.867219999999996 -16.203339999999997 43.867219999999996 L -27.006229999999995 43.867219999999996" stroke-linecap="round" />
</g>
<g transform="matrix(-2.34 0 0 1.86 435.77 167.97)" id="f1Xmfqb2dfSyzDBHbzLMA"  >
<path style="stroke: rgb(0,0,0); stroke-width: 2.5; stroke-dasharray: none; stroke-linecap: butt; stroke-dashoffset: 0; stroke-linejoin: miter; stroke-miterlimit: 4; fill: rgb(255,255,255); fill-opacity: 0; fill-rule: nonzero; opacity: 1;" vector-effect="non-scaling-stroke"  transform=" translate(0, 0)" d="M 27.00622 -43.86722 L 8.86767 -43.86722 C 1.3179300000000005 -43.86722 -4.802349999999999 -37.74694 -4.802349999999999 -30.197200000000002 L -4.802349999999999 32.466229999999996 L -4.802349999999999 32.466229999999996 C -4.802349999999999 38.76282 -9.906749999999999 43.867219999999996 -16.203339999999997 43.867219999999996 L -27.006229999999995 43.867219999999996" stroke-linecap="round" />
</g>
<g transform="matrix(-2.34 0 0 -1.86 435.63 331.84)" id="3uI2k6YT3_N1-A6eAHNbn"  >
<path style="stroke: rgb(0,0,0); stroke-width: 2.5; stroke-dasharray: none; stroke-linecap: butt; stroke-dashoffset: 0; stroke-linejoin: miter; stroke-miterlimit: 4; fill: rgb(255,255,255); fill-opacity: 0; fill-rule: nonzero; opacity: 1;" vector-effect="non-scaling-stroke"  transform=" translate(0, 0)" d="M 27.00622 -43.86722 L 8.86767 -43.86722 C 1.3179300000000005 -43.86722 -4.802349999999999 -37.74694 -4.802349999999999 -30.197200000000002 L -4.802349999999999 32.466229999999996 L -4.802349999999999 32.466229999999996 C -4.802349999999999 38.76282 -9.906749999999999 43.867219999999996 -16.203339999999997 43.867219999999996 L -27.006229999999995 43.867219999999996" stroke-linecap="round" />
</g>
</svg>