<?xml version="1.0" encoding="UTF-8" standalone="no" ?>
<!DOCTYPE svg PUBLIC "-//W3C//DTD SVG 1.1//EN" "http://www.w3.org/Graphics/SVG/1.1/DTD/svg11.dtd">
<svg xmlns="http://www.w3.org/2000/svg" xmlns:xlink="http://www.w3.org/1999/xlink" version="1.1" width="500" height="500" viewBox="0 0 500 500" xml:space="preserve">
<desc>Created with Fabric.js 4.6.0</desc>
<defs>
</defs>
<g transform="matrix(0.96 0 0 0.96 240.1 241.27)" id="6V0gFNAyzeiCrbyrECpND"  >
<g style="" vector-effect="non-scaling-stroke"   >
		<g transform="matrix(4.88 0 0 4.32 0 0)" id="6MA0OG4iW4McJ8dny1LbY"  >
<path style="stroke: rgb(0,0,0); stroke-width: 2; stroke-dasharray: none; stroke-linecap: butt; stroke-dashoffset: 0; stroke-linejoin: miter; stroke-miterlimit: 4; fill: none; fill-rule: nonzero; opacity: 1;" vector-effect="non-scaling-stroke"  transform=" translate(0, 0)" d="M -50 -50 L 50 -50 L 50 50 L -50 50 z" stroke-linecap="round" />
</g>
		<g transform="matrix(1 0 0 1 0 -177.49)" id="QIvFw9LzQ9CJ_X408NAu6"  >
<path style="stroke: rgb(0,0,0); stroke-width: 2; stroke-dasharray: none; stroke-linecap: butt; stroke-dashoffset: 0; stroke-linejoin: miter; stroke-miterlimit: 4; fill: rgb(255,255,255); fill-opacity: 0; fill-rule: nonzero; opacity: 1;" vector-effect="non-scaling-stroke"  transform=" translate(0, 0)" d="M -245.16041 0 L 245.16039999999998 0" stroke-linecap="round" />
</g>
		<g transform="matrix(0.14 0 0 0.14 216.18 -197.43)" id="DMmJHbSNwpNyQLaqqyvje"  >
<path style="stroke: rgb(0,0,0); stroke-width: 1; stroke-dasharray: none; stroke-linecap: butt; stroke-dashoffset: 0; stroke-linejoin: miter; stroke-miterlimit: 4; fill: rgb(0,0,0); fill-rule: nonzero; opacity: 1;" vector-effect="non-scaling-stroke"  transform=" translate(0, 0)" d="M -50 -50 L 50 -50 L 50 50 L -50 50 z" stroke-linecap="round" />
</g>
		<g transform="matrix(0.14 0 0 0.14 189.26 -197.28)" id="uA06TJB8og4hMqLS-4i_K"  >
<path style="stroke: rgb(0,0,0); stroke-width: 1; stroke-dasharray: none; stroke-linecap: butt; stroke-dashoffset: 0; stroke-linejoin: miter; stroke-miterlimit: 4; fill: rgb(0,0,0); fill-rule: nonzero; opacity: 1;" vector-effect="non-scaling-stroke"  transform=" translate(0, 0)" d="M -50 -50 L 50 -50 L 50 50 L -50 50 z" stroke-linecap="round" />
</g>
		<g transform="matrix(0.14 0 0 0.14 162.33 -197.28)" id="j0NuWNZZMtKJahvf7hMvt"  >
<path style="stroke: rgb(0,0,0); stroke-width: 1; stroke-dasharray: none; stroke-linecap: butt; stroke-dashoffset: 0; stroke-linejoin: miter; stroke-miterlimit: 4; fill: rgb(0,0,0); fill-rule: nonzero; opacity: 1;" vector-effect="non-scaling-stroke"  transform=" translate(0, 0)" d="M -50 -50 L 50 -50 L 50 50 L -50 50 z" stroke-linecap="round" />
</g>
</g>
</g>
<g transform="matrix(1.76 0 0 1.33 132.02 177.81)" id="07KhnbztwY5ltiBeuUcxV"  >
<path style="stroke: rgb(0,0,0); stroke-width: 2; stroke-dasharray: none; stroke-linecap: butt; stroke-dashoffset: 0; stroke-linejoin: miter; stroke-miterlimit: 4; fill: none; fill-rule: nonzero; opacity: 1;" vector-effect="non-scaling-stroke"  transform=" translate(0, 0)" d="M -50 -50 L 50 -50 L 50 50 L -50 50 z" stroke-linecap="round" />
</g>
<g transform="matrix(1.76 0 0 0.66 346.31 143.95)" id="VJjtPG6vAjie8eQM9-Y9_"  >
<path style="stroke: rgb(0,0,0); stroke-width: 2; stroke-dasharray: none; stroke-linecap: butt; stroke-dashoffset: 0; stroke-linejoin: miter; stroke-miterlimit: 4; fill: none; fill-rule: nonzero; opacity: 1;" vector-effect="non-scaling-stroke"  transform=" translate(0, 0)" d="M -50 -50 L 50 -50 L 50 50 L -50 50 z" stroke-linecap="round" />
</g>
<g transform="matrix(1.76 0 0 1.15 346.31 279.91)" id="r9IXV6-41E1xqrd2-P_0V"  >
<path style="stroke: rgb(0,0,0); stroke-opacity: 0.5; stroke-width: 2; stroke-dasharray: none; stroke-linecap: butt; stroke-dashoffset: 0; stroke-linejoin: miter; stroke-miterlimit: 4; fill: none; fill-rule: nonzero; opacity: 1;" vector-effect="non-scaling-stroke"  transform=" translate(0, 0)" d="M -50 -50 L 50 -50 L 50 50 L -50 50 z" stroke-linecap="round" />
</g>
<g transform="matrix(1.76 0 0 1.15 360.09 323.96)" id="A8P89mjQer8yLD_i33x-t"  >
<path style="stroke: rgb(0,0,0); stroke-width: 2; stroke-dasharray: none; stroke-linecap: butt; stroke-dashoffset: 0; stroke-linejoin: miter; stroke-miterlimit: 4; fill: rgb(0,0,0); fill-rule: nonzero; opacity: 1;" vector-effect="non-scaling-stroke"  transform=" translate(0, 0)" d="M -50 -50 L 50 -50 L 50 50 L -50 50 z" stroke-linecap="round" />
</g>
<g transform="matrix(-2.07 -0.33 -0.33 2.07 425.15 417.16)" id="DlQME33ia6cQi6OTXQ84l"  >
<path style="stroke: rgb(239,214,172); stroke-width: 0.5; stroke-dasharray: none; stroke-linecap: butt; stroke-dashoffset: 0; stroke-linejoin: miter; stroke-miterlimit: 4; fill: rgb(0,0,0); fill-rule: nonzero; opacity: 1;" vector-effect="non-scaling-stroke"  transform=" translate(-40.6, -39.4)" d="M 7.8 30.5 C 7.8 30.5 73.39999999999999 6.600000000000001 73.39999999999999 6.600000000000001 C 73.39999999999999 6.600000000000001 49.49999999999999 72.19999999999999 49.49999999999999 72.19999999999999 C 49.49999999999999 72.19999999999999 41.49999999999999 49.39999999999999 41.099999999999994 48.499999999999986 C 40.699999999999996 47.59999999999999 39.699999999999996 46.899999999999984 38.599999999999994 46.79999999999998 C 37.599999999999994 46.69999999999998 36.599999999999994 47.09999999999998 35.89999999999999 47.69999999999998 L 12.9 70.8 C 12.200000000000001 71.5 10.9 71.5 10.2 70.8 L 9.2 69.8 C 8.5 69.1 8.5 67.8 9.2 67.1 L 32.3 44 C 33 43.3 33.3 42.3 33.199999999999996 41.2 C 33.099999999999994 40.2 32.3 39.1 31.099999999999994 38.7 C 29.9 38.2 7.8 30.5 7.8 30.5 z" stroke-linecap="round" />
</g>
<g transform="matrix(1 0 0 1 132.02 295.02)" id="8lF4VNJkTNztNa-0ZptCx"  >
<path style="stroke: rgb(0,0,0); stroke-width: 2; stroke-dasharray: none; stroke-linecap: butt; stroke-dashoffset: 0; stroke-linejoin: miter; stroke-miterlimit: 4; fill: rgb(255,255,255); fill-opacity: 0; fill-rule: nonzero; opacity: 1;" vector-effect="non-scaling-stroke"  transform=" translate(0, 0)" d="M -88.80762 0 L 88.80762 0" stroke-linecap="round" />
</g>
<g transform="matrix(1 0 0 1 132.02 322.96)" id="WpGMAbpKp3RDN8WH-2tCl"  >
<path style="stroke: rgb(0,0,0); stroke-width: 2; stroke-dasharray: none; stroke-linecap: butt; stroke-dashoffset: 0; stroke-linejoin: miter; stroke-miterlimit: 4; fill: rgb(255,255,255); fill-opacity: 0; fill-rule: nonzero; opacity: 1;" vector-effect="non-scaling-stroke"  transform=" translate(0, 0)" d="M -88.80762 0 L 88.80762 0" stroke-linecap="round" />
</g>
<g transform="matrix(1 0 0 1 132.02 350.55)" id="x38jY2ui38HuAiiXH1uW7"  >
<path style="stroke: rgb(0,0,0); stroke-width: 2; stroke-dasharray: none; stroke-linecap: butt; stroke-dashoffset: 0; stroke-linejoin: miter; stroke-miterlimit: 4; fill: rgb(255,255,255); fill-opacity: 0; fill-rule: nonzero; opacity: 1;" vector-effect="non-scaling-stroke"  transform=" translate(0, 0)" d="M -88.80762 0 L 88.80762 0" stroke-linecap="round" />
</g>
</svg>