<?xml version="1.0" encoding="UTF-8" standalone="no" ?>
<!DOCTYPE svg PUBLIC "-//W3C//DTD SVG 1.1//EN" "http://www.w3.org/Graphics/SVG/1.1/DTD/svg11.dtd">
<svg xmlns="http://www.w3.org/2000/svg" xmlns:xlink="http://www.w3.org/1999/xlink" version="1.1" width="500" height="500" viewBox="0 0 500 500" xml:space="preserve">
<desc>Created with Fabric.js 4.6.0</desc>
<defs>
</defs>
<g transform="matrix(1 0 0 1 249.77 250.23)" id="09SxlXV9v2C6RRTS2cOvo"  >
<path style="stroke: rgb(0,0,0); stroke-width: 5; stroke-dasharray: none; stroke-linecap: butt; stroke-dashoffset: 0; stroke-linejoin: miter; stroke-miterlimit: 4; fill: none; fill-rule: nonzero; opacity: 1;" vector-effect="non-scaling-stroke"  transform=" translate(0, 0)" d="M -241.5 -241.5 L 241.5 -241.5 L 241.5 241.5 L -241.5 241.5 z" stroke-linecap="round" />
</g>
<g transform="matrix(8.37 0 0 6.54 250 255.36)" id="awPdSB3AUdysJeandT51C"  >
<path style="stroke: rgb(233,20,39); stroke-width: 0; stroke-dasharray: none; stroke-linecap: butt; stroke-dashoffset: 0; stroke-linejoin: miter; stroke-miterlimit: 4; fill: rgb(0,0,0); fill-rule: nonzero; opacity: 1;" vector-effect="non-scaling-stroke"  transform=" translate(0, 0)" d="M 0 -17.5 C 9.66 -17.5 17.5 -9.66 17.5 0 C 17.5 9.66 9.66 17.5 0 17.5 C -9.66 17.5 -17.5 9.66 -17.5 0 C -17.5 -9.66 -9.66 -17.5 0 -17.5 z" stroke-linecap="round" />
</g>
<g transform="matrix(0.94 -0.74 0.74 0.94 126.7 160.03)" id="sCJnCXH4Wu1c0pkHSI4x_"  >
<path style="stroke: none; stroke-width: 1; stroke-dasharray: none; stroke-linecap: butt; stroke-dashoffset: 0; stroke-linejoin: miter; stroke-miterlimit: 4; fill: rgb(0,0,0); fill-rule: nonzero; opacity: 1;" vector-effect="non-scaling-stroke"  transform=" translate(0, 0)" d="M 24.9621 -6.84661 C 35.063069999999996 9.42386 40 32.54093 40 32.54093 L 0 32.54093 L -40 32.54093 C -40 32.54093 -31.359189999999998 7.670590000000004 -21.46017 -8.599879999999999 C -11.561140000000002 -24.87035 -0.40390000000000015 -32.540949999999995 -0.40390000000000015 -32.540949999999995 C -0.40390000000000015 -32.540949999999995 14.86112 -23.117089999999997 24.96209 -6.846619999999994 z" stroke-linecap="round" />
</g>
<g transform="matrix(4.43 0 0 6.46 250 409.99)" id="4mw7c79ss0SuyXSBx7dEB"  >
<path style="stroke: rgb(233,20,39); stroke-width: 0; stroke-dasharray: none; stroke-linecap: butt; stroke-dashoffset: 0; stroke-linejoin: miter; stroke-miterlimit: 4; fill: rgb(0,0,0); fill-rule: nonzero; opacity: 1;" vector-effect="non-scaling-stroke"  transform=" translate(0, 0)" d="M 0 -13.0737 C 9.66 -13.0737 17.5 -5.233700000000001 17.5 4.4262999999999995 C 17.5 14.0863 9.66 13.040569999999999 0 13.040569999999999 C -9.66 13.040569999999999 -17.5 14.0863 -17.5 4.4262999999999995 C -17.5 -5.233700000000001 -9.66 -13.0737 0 -13.0737 z" stroke-linecap="round" />
</g>
<g transform="matrix(-0.95 -0.74 -0.74 0.95 372.09 159.86)" id="mSkniYuRs9Qt5o55IfYB6"  >
<path style="stroke: none; stroke-width: 1; stroke-dasharray: none; stroke-linecap: butt; stroke-dashoffset: 0; stroke-linejoin: miter; stroke-miterlimit: 4; fill: rgb(0,0,0); fill-rule: nonzero; opacity: 1;" vector-effect="non-scaling-stroke"  transform=" translate(0, 0)" d="M 24.9621 -6.84661 C 35.063069999999996 9.42386 40 32.54093 40 32.54093 L 0 32.54093 L -40 32.54093 C -40 32.54093 -31.359189999999998 7.670590000000004 -21.46017 -8.599879999999999 C -11.561140000000002 -24.87035 -0.40390000000000015 -32.540949999999995 -0.40390000000000015 -32.540949999999995 C -0.40390000000000015 -32.540949999999995 14.86112 -23.117089999999997 24.96209 -6.846619999999994 z" stroke-linecap="round" />
</g>
<g transform="matrix(1 0 0 1 121.37 391.98)" id="CbFBaj71lsz2muVbX344o"  >
<path style="stroke: rgb(0,0,0); stroke-width: 1; stroke-dasharray: none; stroke-linecap: butt; stroke-dashoffset: 0; stroke-linejoin: miter; stroke-miterlimit: 4; fill: rgb(0,0,0); fill-rule: nonzero; opacity: 1;" vector-effect="non-scaling-stroke"  transform=" translate(0, 0)" d="M -64.97682 -28.01877 C -67.12828 -29.23754 -68.183 -31.75725 -67.54126000000001 -34.14522 C -66.89953000000001 -36.533190000000005 -64.72384000000001 -38.18477 -62.25126000000001 -38.16089 L -60.77502000000001 -38.146640000000005 L -60.77502000000001 -38.146640000000005 C -42.29714000000001 -37.96824 -24.962790000000012 -29.170430000000003 -13.910570000000014 -14.361240000000006 L -12.852380000000014 -12.943340000000006 L -12.852380000000014 -12.943340000000006 C -1.6739700000000148 2.034929999999994 16.903799999999986 9.557699999999993 35.35432999999999 6.577179999999995 L 59.95612999999999 2.602989999999995 L 67.72761999999999 32.74123999999999 L 32.10161999999999 37.600669999999994 L 32.10161999999999 37.600669999999994 C 7.936559999999989 40.896809999999995 -15.863850000000014 29.455389999999994 -28.38242000000001 8.524539999999995 L -31.39984000000001 3.479459999999995 L -31.39984000000001 3.479459999999995 C -38.797460000000015 -8.889240000000004 -49.27880000000001 -19.126070000000006 -61.81865000000001 -26.229720000000004 z" stroke-linecap="round" />
</g>
</svg>