<?xml version="1.0" encoding="UTF-8" standalone="no" ?>
<!DOCTYPE svg PUBLIC "-//W3C//DTD SVG 1.1//EN" "http://www.w3.org/Graphics/SVG/1.1/DTD/svg11.dtd">
<svg xmlns="http://www.w3.org/2000/svg" xmlns:xlink="http://www.w3.org/1999/xlink" version="1.1" width="500" height="500" viewBox="0 0 500 500" xml:space="preserve">
<desc>Created with Fabric.js 4.6.0</desc>
<defs>
</defs>
<g transform="matrix(-3.72 3.72 3.72 3.72 257.71 250)" id="PG8c-d6_z25fASgtUYRdU"  >
<path style="stroke: rgb(239,214,172); stroke-width: 0.5; stroke-dasharray: none; stroke-linecap: butt; stroke-dashoffset: 0; stroke-linejoin: miter; stroke-miterlimit: 4; fill: rgb(239,214,172); fill-rule: nonzero; opacity: 1;" vector-effect="non-scaling-stroke"  transform=" translate(0, 0)" d="M -32.80295 -8.89705 L 32.79704999999999 -32.79705 L 8.897049999999993 32.802949999999996 C 8.897049999999993 32.802949999999996 0.897049999999993 10.002949999999995 0.49704999999999266 9.102949999999996 C 0.09704999999999264 8.202949999999996 -0.9029500000000072 7.502949999999997 -2.0029500000000073 7.402949999999996 C -3.0029500000000073 7.3029499999999965 -4.002950000000007 7.702949999999996 -4.7029500000000075 8.302949999999996 L -27.70295000000001 31.402949999999997 C -28.402950000000008 32.10295 33.497049999999994 -32.09705 32.79704999999999 -32.797050000000006 L 32.79704999999999 -32.797050000000006 C 32.09704999999999 -33.49705000000001 -32.102950000000014 28.402949999999997 -31.40295000000001 27.702949999999994 L -8.30295000000001 4.602949999999993 C -7.60295000000001 3.9029499999999926 -7.30295000000001 2.9029499999999926 -7.4029500000000095 1.802949999999993 C -7.502950000000009 0.802949999999993 -8.30295000000001 -0.29705000000000714 -9.50295000000001 -0.697050000000007 C -10.702950000000008 -1.197050000000007 -32.80295000000001 -8.897050000000007 -32.80295000000001 -8.897050000000007 z" stroke-linecap="round" />
</g>
</svg>