<?xml version="1.0" encoding="UTF-8" standalone="no" ?>
<!DOCTYPE svg PUBLIC "-//W3C//DTD SVG 1.1//EN" "http://www.w3.org/Graphics/SVG/1.1/DTD/svg11.dtd">
<svg xmlns="http://www.w3.org/2000/svg" xmlns:xlink="http://www.w3.org/1999/xlink" version="1.1" width="500" height="500" viewBox="0 0 500 500" xml:space="preserve">
<desc>Created with Fabric.js 4.6.0</desc>
<defs>
</defs>
<g transform="matrix(1 0 0 1 250 250)" id="09SxlXV9v2C6RRTS2cOvo"  >
<path style="stroke: rgb(239,214,172); stroke-width: 1; stroke-dasharray: none; stroke-linecap: butt; stroke-dashoffset: 0; stroke-linejoin: miter; stroke-miterlimit: 4; fill: none; fill-rule: nonzero; opacity: 1;" vector-effect="non-scaling-stroke"  transform=" translate(-241.5, -241.5)" d="M 0 0 L 483 0 L 483 483 L 0 483 z" stroke-linecap="round" />
</g>
<g transform="matrix(1 0 0 1.02 187.39 322.59)" id="jU0JFkyeiDw5ojnGT0jXd"  >
<path style="stroke: rgb(241,133,136); stroke-width: 0; stroke-dasharray: none; stroke-linecap: butt; stroke-dashoffset: 0; stroke-linejoin: miter; stroke-miterlimit: 4; fill: rgb(239,214,172); fill-rule: nonzero; opacity: 1;" vector-effect="non-scaling-stroke"  transform=" translate(0, 0)" d="M -17.5 -166.43899 L 17.5 -166.43899 L 17.5 166.43900000000002 L -17.5 166.43900000000002 z" stroke-linecap="round" />
</g>
<g transform="matrix(1 0 0 1 263.09 152.01)" id="SCxHxZwN-1iewsF6MHP0R"  >
<path style="stroke: rgb(241,133,136); stroke-width: 0; stroke-dasharray: none; stroke-linecap: butt; stroke-dashoffset: 0; stroke-linejoin: miter; stroke-miterlimit: 4; fill: rgb(239,214,172); fill-rule: nonzero; opacity: 1;" vector-effect="non-scaling-stroke"  transform=" translate(-93.2, -17.5)" d="M 0 0 L 186.39261 0 L 186.39261 35 L 0 35 z" stroke-linecap="round" />
</g>
<g transform="matrix(0.51 0 0 1 231.09 287.59)" id="4WDwHLcMPmxP9PprTfzVo"  >
<path style="stroke: rgb(241,133,136); stroke-width: 0; stroke-dasharray: none; stroke-linecap: butt; stroke-dashoffset: 0; stroke-linejoin: miter; stroke-miterlimit: 4; fill: rgb(239,214,172); fill-rule: nonzero; opacity: 1;" vector-effect="non-scaling-stroke"  transform=" translate(0, 0)" d="M -93.1963 -17.5 L 93.19631 -17.5 L 93.19631 17.5 L -93.1963 17.5 z" stroke-linecap="round" />
</g>
</svg>